<mxfile host="app.diagrams.net" agent="Mozilla/5.0 (Windows NT 10.0; Win64; x64; rv:142.0) Gecko/20100101 Firefox/142.0" version="28.2.7">
  <diagram name="Сторінка-1" id="MvOr6wg9SbbIQqeo-ffa">
    <mxGraphModel dx="3584" dy="995" grid="1" gridSize="10" guides="1" tooltips="1" connect="1" arrows="1" fold="1" page="1" pageScale="1" pageWidth="1169" pageHeight="827" math="0" shadow="0">
      <root>
        <mxCell id="0" />
        <mxCell id="1" parent="0" />
        <mxCell id="Guq4Dx4WWDrTkWr6NEw7-1" value="початок" style="ellipse;whiteSpace=wrap;html=1;" vertex="1" parent="1">
          <mxGeometry x="720" y="20" width="120" height="40" as="geometry" />
        </mxCell>
        <mxCell id="Guq4Dx4WWDrTkWr6NEw7-2" value="R" style="shape=parallelogram;perimeter=parallelogramPerimeter;whiteSpace=wrap;html=1;fixedSize=1;" vertex="1" parent="1">
          <mxGeometry x="720" y="80" width="120" height="40" as="geometry" />
        </mxCell>
        <mxCell id="Guq4Dx4WWDrTkWr6NEw7-3" value="i = 0" style="rounded=0;whiteSpace=wrap;html=1;" vertex="1" parent="1">
          <mxGeometry x="720" y="140" width="120" height="40" as="geometry" />
        </mxCell>
        <mxCell id="Guq4Dx4WWDrTkWr6NEw7-26" style="edgeStyle=orthogonalEdgeStyle;rounded=0;orthogonalLoop=1;jettySize=auto;html=1;" edge="1" parent="1" source="Guq4Dx4WWDrTkWr6NEw7-4">
          <mxGeometry relative="1" as="geometry">
            <mxPoint x="80" y="300" as="targetPoint" />
            <Array as="points">
              <mxPoint x="40" y="240" />
              <mxPoint x="40" y="300" />
            </Array>
          </mxGeometry>
        </mxCell>
        <mxCell id="Guq4Dx4WWDrTkWr6NEw7-4" value="i &amp;lt; 10" style="rhombus;whiteSpace=wrap;html=1;" vertex="1" parent="1">
          <mxGeometry x="720" y="220" width="120" height="40" as="geometry" />
        </mxCell>
        <mxCell id="Guq4Dx4WWDrTkWr6NEw7-5" value="x,y" style="shape=parallelogram;perimeter=parallelogramPerimeter;whiteSpace=wrap;html=1;fixedSize=1;" vertex="1" parent="1">
          <mxGeometry x="840" y="280" width="120" height="40" as="geometry" />
        </mxCell>
        <mxCell id="Guq4Dx4WWDrTkWr6NEw7-7" value="((x &amp;gt;= 0 &amp;amp;&amp;amp; x &amp;lt;= 2 * R &amp;amp;&amp;amp; y &amp;gt;= R &amp;amp;&amp;amp; y &amp;lt;= 2 * R) ||&amp;nbsp;&lt;br&gt;&amp;nbsp; &amp;nbsp; &amp;nbsp; &amp;nbsp; &amp;nbsp; &amp;nbsp; (x &amp;gt;= -2 * R &amp;amp;&amp;amp; x &amp;lt;= 0 &amp;amp;&amp;amp; y &amp;gt;= -2 * R &amp;amp;&amp;amp; y &amp;lt;= x) ||&amp;nbsp;&lt;br&gt;&amp;nbsp; &amp;nbsp; &amp;nbsp; &amp;nbsp; &amp;nbsp; &amp;nbsp; (x &amp;gt;= 0 &amp;amp;&amp;amp; y &amp;gt;= 0 &amp;amp;&amp;amp; x * x + y * y &amp;lt;= R * R))" style="rhombus;whiteSpace=wrap;html=1;" vertex="1" parent="1">
          <mxGeometry x="646.25" y="340" width="507.5" height="120" as="geometry" />
        </mxCell>
        <mxCell id="Guq4Dx4WWDrTkWr6NEw7-8" value="" style="endArrow=none;html=1;rounded=0;entryX=1;entryY=0.5;entryDx=0;entryDy=0;" edge="1" parent="1" target="Guq4Dx4WWDrTkWr6NEw7-7">
          <mxGeometry width="50" height="50" relative="1" as="geometry">
            <mxPoint x="1200" y="400" as="sourcePoint" />
            <mxPoint x="950" y="340" as="targetPoint" />
          </mxGeometry>
        </mxCell>
        <mxCell id="Guq4Dx4WWDrTkWr6NEw7-10" value="" style="endArrow=none;html=1;rounded=0;" edge="1" parent="1">
          <mxGeometry width="50" height="50" relative="1" as="geometry">
            <mxPoint x="1200" y="400" as="sourcePoint" />
            <mxPoint x="1200" y="480" as="targetPoint" />
          </mxGeometry>
        </mxCell>
        <mxCell id="Guq4Dx4WWDrTkWr6NEw7-11" value="" style="endArrow=none;html=1;rounded=0;entryX=0;entryY=0.5;entryDx=0;entryDy=0;" edge="1" parent="1" target="Guq4Dx4WWDrTkWr6NEw7-7">
          <mxGeometry width="50" height="50" relative="1" as="geometry">
            <mxPoint x="600" y="400" as="sourcePoint" />
            <mxPoint x="630" y="390" as="targetPoint" />
          </mxGeometry>
        </mxCell>
        <mxCell id="Guq4Dx4WWDrTkWr6NEw7-12" value="" style="endArrow=none;html=1;rounded=0;" edge="1" parent="1">
          <mxGeometry width="50" height="50" relative="1" as="geometry">
            <mxPoint x="600" y="480" as="sourcePoint" />
            <mxPoint x="600" y="400" as="targetPoint" />
          </mxGeometry>
        </mxCell>
        <mxCell id="Guq4Dx4WWDrTkWr6NEw7-13" value="no" style="shape=document;whiteSpace=wrap;html=1;boundedLbl=1;" vertex="1" parent="1">
          <mxGeometry x="560" y="480" width="80" height="40" as="geometry" />
        </mxCell>
        <mxCell id="Guq4Dx4WWDrTkWr6NEw7-14" value="yes" style="shape=document;whiteSpace=wrap;html=1;boundedLbl=1;" vertex="1" parent="1">
          <mxGeometry x="1160" y="480" width="80" height="40" as="geometry" />
        </mxCell>
        <mxCell id="Guq4Dx4WWDrTkWr6NEw7-15" value="" style="endArrow=none;html=1;rounded=0;entryX=0.5;entryY=0.853;entryDx=0;entryDy=0;entryPerimeter=0;" edge="1" parent="1" target="Guq4Dx4WWDrTkWr6NEw7-14">
          <mxGeometry width="50" height="50" relative="1" as="geometry">
            <mxPoint x="1200" y="600" as="sourcePoint" />
            <mxPoint x="1080" y="470" as="targetPoint" />
          </mxGeometry>
        </mxCell>
        <mxCell id="Guq4Dx4WWDrTkWr6NEw7-16" value="" style="endArrow=none;html=1;rounded=0;entryX=0.499;entryY=0.853;entryDx=0;entryDy=0;entryPerimeter=0;" edge="1" parent="1" target="Guq4Dx4WWDrTkWr6NEw7-13">
          <mxGeometry width="50" height="50" relative="1" as="geometry">
            <mxPoint x="600" y="600" as="sourcePoint" />
            <mxPoint x="599.71" y="520" as="targetPoint" />
          </mxGeometry>
        </mxCell>
        <mxCell id="Guq4Dx4WWDrTkWr6NEw7-17" value="" style="endArrow=none;html=1;rounded=0;" edge="1" parent="1">
          <mxGeometry width="50" height="50" relative="1" as="geometry">
            <mxPoint x="600" y="600" as="sourcePoint" />
            <mxPoint x="1200" y="600" as="targetPoint" />
          </mxGeometry>
        </mxCell>
        <mxCell id="Guq4Dx4WWDrTkWr6NEw7-18" value="" style="endArrow=none;html=1;rounded=0;entryX=0.5;entryY=1;entryDx=0;entryDy=0;exitX=0.5;exitY=0;exitDx=0;exitDy=0;" edge="1" parent="1" source="Guq4Dx4WWDrTkWr6NEw7-7" target="Guq4Dx4WWDrTkWr6NEw7-5">
          <mxGeometry width="50" height="50" relative="1" as="geometry">
            <mxPoint x="860" y="300" as="sourcePoint" />
            <mxPoint x="910" y="250" as="targetPoint" />
          </mxGeometry>
        </mxCell>
        <mxCell id="Guq4Dx4WWDrTkWr6NEw7-19" value="" style="endArrow=none;html=1;rounded=0;exitX=1;exitY=0.5;exitDx=0;exitDy=0;" edge="1" parent="1" source="Guq4Dx4WWDrTkWr6NEw7-4">
          <mxGeometry width="50" height="50" relative="1" as="geometry">
            <mxPoint x="860" y="300" as="sourcePoint" />
            <mxPoint x="900" y="240" as="targetPoint" />
          </mxGeometry>
        </mxCell>
        <mxCell id="Guq4Dx4WWDrTkWr6NEw7-20" value="" style="endArrow=none;html=1;rounded=0;exitX=0.5;exitY=0;exitDx=0;exitDy=0;" edge="1" parent="1" source="Guq4Dx4WWDrTkWr6NEw7-5">
          <mxGeometry width="50" height="50" relative="1" as="geometry">
            <mxPoint x="860" y="300" as="sourcePoint" />
            <mxPoint x="900" y="240" as="targetPoint" />
          </mxGeometry>
        </mxCell>
        <mxCell id="Guq4Dx4WWDrTkWr6NEw7-21" value="" style="endArrow=none;html=1;rounded=0;entryX=0.5;entryY=1;entryDx=0;entryDy=0;exitX=0.5;exitY=0;exitDx=0;exitDy=0;" edge="1" parent="1" source="Guq4Dx4WWDrTkWr6NEw7-4" target="Guq4Dx4WWDrTkWr6NEw7-3">
          <mxGeometry width="50" height="50" relative="1" as="geometry">
            <mxPoint x="860" y="300" as="sourcePoint" />
            <mxPoint x="910" y="250" as="targetPoint" />
          </mxGeometry>
        </mxCell>
        <mxCell id="Guq4Dx4WWDrTkWr6NEw7-22" value="" style="endArrow=none;html=1;rounded=0;entryX=0.5;entryY=1;entryDx=0;entryDy=0;exitX=0.5;exitY=0;exitDx=0;exitDy=0;" edge="1" parent="1" source="Guq4Dx4WWDrTkWr6NEw7-3" target="Guq4Dx4WWDrTkWr6NEw7-2">
          <mxGeometry width="50" height="50" relative="1" as="geometry">
            <mxPoint x="860" y="300" as="sourcePoint" />
            <mxPoint x="910" y="250" as="targetPoint" />
          </mxGeometry>
        </mxCell>
        <mxCell id="Guq4Dx4WWDrTkWr6NEw7-23" value="" style="endArrow=none;html=1;rounded=0;entryX=0.5;entryY=1;entryDx=0;entryDy=0;exitX=0.5;exitY=0;exitDx=0;exitDy=0;" edge="1" parent="1" source="Guq4Dx4WWDrTkWr6NEw7-2" target="Guq4Dx4WWDrTkWr6NEw7-1">
          <mxGeometry width="50" height="50" relative="1" as="geometry">
            <mxPoint x="860" y="300" as="sourcePoint" />
            <mxPoint x="910" y="250" as="targetPoint" />
          </mxGeometry>
        </mxCell>
        <mxCell id="Guq4Dx4WWDrTkWr6NEw7-25" style="edgeStyle=orthogonalEdgeStyle;rounded=0;orthogonalLoop=1;jettySize=auto;html=1;" edge="1" parent="1" source="Guq4Dx4WWDrTkWr6NEw7-24">
          <mxGeometry relative="1" as="geometry">
            <mxPoint x="780" y="200" as="targetPoint" />
            <Array as="points">
              <mxPoint x="1280" y="640" />
            </Array>
          </mxGeometry>
        </mxCell>
        <mxCell id="Guq4Dx4WWDrTkWr6NEw7-24" value="i++" style="rounded=0;whiteSpace=wrap;html=1;" vertex="1" parent="1">
          <mxGeometry x="840" y="620" width="120" height="40" as="geometry" />
        </mxCell>
        <mxCell id="Guq4Dx4WWDrTkWr6NEw7-27" value="i = 0" style="rounded=0;whiteSpace=wrap;html=1;" vertex="1" parent="1">
          <mxGeometry y="300" width="80" height="40" as="geometry" />
        </mxCell>
        <mxCell id="Guq4Dx4WWDrTkWr6NEw7-28" value="i &amp;lt; 10" style="rhombus;whiteSpace=wrap;html=1;" vertex="1" parent="1">
          <mxGeometry x="-15" y="364" width="110" height="50" as="geometry" />
        </mxCell>
        <mxCell id="Guq4Dx4WWDrTkWr6NEw7-29" value="" style="endArrow=none;html=1;rounded=0;entryX=0.5;entryY=1;entryDx=0;entryDy=0;exitX=0.5;exitY=0;exitDx=0;exitDy=0;" edge="1" parent="1" source="Guq4Dx4WWDrTkWr6NEw7-28" target="Guq4Dx4WWDrTkWr6NEw7-27">
          <mxGeometry width="50" height="50" relative="1" as="geometry">
            <mxPoint x="250" y="450" as="sourcePoint" />
            <mxPoint x="300" y="400" as="targetPoint" />
          </mxGeometry>
        </mxCell>
        <mxCell id="Guq4Dx4WWDrTkWr6NEw7-30" value="" style="endArrow=none;html=1;rounded=0;exitX=1;exitY=0.5;exitDx=0;exitDy=0;" edge="1" parent="1" source="Guq4Dx4WWDrTkWr6NEw7-28">
          <mxGeometry width="50" height="50" relative="1" as="geometry">
            <mxPoint x="250" y="450" as="sourcePoint" />
            <mxPoint x="160" y="390" as="targetPoint" />
          </mxGeometry>
        </mxCell>
        <mxCell id="Guq4Dx4WWDrTkWr6NEw7-31" value="" style="endArrow=none;html=1;rounded=0;exitX=0.5;exitY=0;exitDx=0;exitDy=0;" edge="1" parent="1" source="Guq4Dx4WWDrTkWr6NEw7-32">
          <mxGeometry width="50" height="50" relative="1" as="geometry">
            <mxPoint x="200" y="480" as="sourcePoint" />
            <mxPoint x="160" y="390" as="targetPoint" />
            <Array as="points" />
          </mxGeometry>
        </mxCell>
        <mxCell id="Guq4Dx4WWDrTkWr6NEw7-32" value="&lt;div align=&quot;left&quot;&gt;&amp;nbsp; &amp;nbsp; x = 4 * R * rand() / RAND_MAX - 2 * R;&amp;nbsp; &amp;nbsp; &amp;nbsp; &amp;nbsp; &amp;nbsp; y = 4 * R * rand() / RAND_MAX - 2 * R;&lt;/div&gt;" style="rounded=0;whiteSpace=wrap;html=1;align=left;" vertex="1" parent="1">
          <mxGeometry x="40" y="470" width="240" height="120" as="geometry" />
        </mxCell>
        <mxCell id="Guq4Dx4WWDrTkWr6NEw7-33" value="((x &amp;gt;= 0 &amp;amp;&amp;amp; x &amp;lt;= 2 * R &amp;amp;&amp;amp; y &amp;gt;= R &amp;amp;&amp;amp; y &amp;lt;= 2 * R) ||&amp;nbsp;&lt;br&gt;&amp;nbsp; &amp;nbsp; &amp;nbsp; &amp;nbsp; &amp;nbsp; &amp;nbsp; (x &amp;gt;= -2 * R &amp;amp;&amp;amp; x &amp;lt;= 0 &amp;amp;&amp;amp; y &amp;gt;= -2 * R &amp;amp;&amp;amp; y &amp;lt;= x) ||&amp;nbsp;&lt;br&gt;&amp;nbsp; &amp;nbsp; &amp;nbsp; &amp;nbsp; &amp;nbsp; &amp;nbsp; (x &amp;gt;= 0 &amp;amp;&amp;amp; y &amp;gt;= 0 &amp;amp;&amp;amp; x * x + y * y &amp;lt;= R * R))" style="rhombus;whiteSpace=wrap;html=1;" vertex="1" parent="1">
          <mxGeometry x="-93.75" y="620" width="507.5" height="120" as="geometry" />
        </mxCell>
        <mxCell id="Guq4Dx4WWDrTkWr6NEw7-34" value="" style="endArrow=none;html=1;rounded=0;entryX=0.5;entryY=1;entryDx=0;entryDy=0;exitX=0.5;exitY=0;exitDx=0;exitDy=0;" edge="1" parent="1" source="Guq4Dx4WWDrTkWr6NEw7-33" target="Guq4Dx4WWDrTkWr6NEw7-32">
          <mxGeometry width="50" height="50" relative="1" as="geometry">
            <mxPoint x="170" y="650" as="sourcePoint" />
            <mxPoint x="220" y="600" as="targetPoint" />
          </mxGeometry>
        </mxCell>
        <mxCell id="Guq4Dx4WWDrTkWr6NEw7-35" value="" style="endArrow=none;html=1;rounded=0;exitX=1;exitY=0.5;exitDx=0;exitDy=0;" edge="1" parent="1" source="Guq4Dx4WWDrTkWr6NEw7-33">
          <mxGeometry width="50" height="50" relative="1" as="geometry">
            <mxPoint x="320" y="650" as="sourcePoint" />
            <mxPoint x="480" y="680" as="targetPoint" />
          </mxGeometry>
        </mxCell>
        <mxCell id="Guq4Dx4WWDrTkWr6NEw7-36" value="" style="endArrow=none;html=1;rounded=0;" edge="1" parent="1">
          <mxGeometry width="50" height="50" relative="1" as="geometry">
            <mxPoint x="480" y="680" as="sourcePoint" />
            <mxPoint x="480" y="760" as="targetPoint" />
          </mxGeometry>
        </mxCell>
        <mxCell id="Guq4Dx4WWDrTkWr6NEw7-37" value="" style="endArrow=none;html=1;rounded=0;exitX=0;exitY=0.5;exitDx=0;exitDy=0;" edge="1" parent="1" source="Guq4Dx4WWDrTkWr6NEw7-33">
          <mxGeometry width="50" height="50" relative="1" as="geometry">
            <mxPoint x="30" y="650" as="sourcePoint" />
            <mxPoint x="-160" y="680" as="targetPoint" />
          </mxGeometry>
        </mxCell>
        <mxCell id="Guq4Dx4WWDrTkWr6NEw7-38" value="" style="endArrow=none;html=1;rounded=0;" edge="1" parent="1">
          <mxGeometry width="50" height="50" relative="1" as="geometry">
            <mxPoint x="-160" y="680" as="sourcePoint" />
            <mxPoint x="-160" y="760" as="targetPoint" />
          </mxGeometry>
        </mxCell>
        <mxCell id="Guq4Dx4WWDrTkWr6NEw7-39" value="x,y no" style="shape=document;whiteSpace=wrap;html=1;boundedLbl=1;" vertex="1" parent="1">
          <mxGeometry x="-200" y="760" width="80" height="40" as="geometry" />
        </mxCell>
        <mxCell id="Guq4Dx4WWDrTkWr6NEw7-40" value="x,y yes" style="shape=document;whiteSpace=wrap;html=1;boundedLbl=1;" vertex="1" parent="1">
          <mxGeometry x="440" y="760" width="80" height="40" as="geometry" />
        </mxCell>
        <mxCell id="Guq4Dx4WWDrTkWr6NEw7-41" value="" style="endArrow=none;html=1;rounded=0;exitX=0.497;exitY=0.85;exitDx=0;exitDy=0;exitPerimeter=0;" edge="1" parent="1" source="Guq4Dx4WWDrTkWr6NEw7-39">
          <mxGeometry width="50" height="50" relative="1" as="geometry">
            <mxPoint x="-20" y="770" as="sourcePoint" />
            <mxPoint x="-160" y="880" as="targetPoint" />
          </mxGeometry>
        </mxCell>
        <mxCell id="Guq4Dx4WWDrTkWr6NEw7-42" value="" style="endArrow=none;html=1;rounded=0;exitX=0.499;exitY=0.85;exitDx=0;exitDy=0;exitPerimeter=0;" edge="1" parent="1" source="Guq4Dx4WWDrTkWr6NEw7-40">
          <mxGeometry width="50" height="50" relative="1" as="geometry">
            <mxPoint x="479.72" y="790" as="sourcePoint" />
            <mxPoint x="480" y="880" as="targetPoint" />
          </mxGeometry>
        </mxCell>
        <mxCell id="Guq4Dx4WWDrTkWr6NEw7-43" value="" style="endArrow=none;html=1;rounded=0;" edge="1" parent="1">
          <mxGeometry width="50" height="50" relative="1" as="geometry">
            <mxPoint x="-160" y="880" as="sourcePoint" />
            <mxPoint x="484.800048828125" y="880" as="targetPoint" />
          </mxGeometry>
        </mxCell>
        <mxCell id="Guq4Dx4WWDrTkWr6NEw7-46" style="edgeStyle=orthogonalEdgeStyle;rounded=0;orthogonalLoop=1;jettySize=auto;html=1;" edge="1" parent="1" source="Guq4Dx4WWDrTkWr6NEw7-44">
          <mxGeometry relative="1" as="geometry">
            <mxPoint x="40" y="350" as="targetPoint" />
            <Array as="points">
              <mxPoint x="540" y="920" />
            </Array>
          </mxGeometry>
        </mxCell>
        <mxCell id="Guq4Dx4WWDrTkWr6NEw7-44" value="i++" style="rounded=0;whiteSpace=wrap;html=1;" vertex="1" parent="1">
          <mxGeometry y="900" width="80" height="40" as="geometry" />
        </mxCell>
        <mxCell id="Guq4Dx4WWDrTkWr6NEw7-45" value="" style="endArrow=none;html=1;rounded=0;exitX=0.5;exitY=0;exitDx=0;exitDy=0;" edge="1" parent="1" source="Guq4Dx4WWDrTkWr6NEw7-44">
          <mxGeometry width="50" height="50" relative="1" as="geometry">
            <mxPoint x="110" y="960" as="sourcePoint" />
            <mxPoint x="40" y="880" as="targetPoint" />
          </mxGeometry>
        </mxCell>
        <mxCell id="Guq4Dx4WWDrTkWr6NEw7-47" value="" style="endArrow=none;html=1;rounded=0;entryX=0;entryY=0.5;entryDx=0;entryDy=0;" edge="1" parent="1" target="Guq4Dx4WWDrTkWr6NEw7-28">
          <mxGeometry width="50" height="50" relative="1" as="geometry">
            <mxPoint x="-320" y="389" as="sourcePoint" />
            <mxPoint x="-230" y="650" as="targetPoint" />
          </mxGeometry>
        </mxCell>
        <mxCell id="Guq4Dx4WWDrTkWr6NEw7-48" value="" style="endArrow=none;html=1;rounded=0;" edge="1" parent="1">
          <mxGeometry width="50" height="50" relative="1" as="geometry">
            <mxPoint x="-320" y="520" as="sourcePoint" />
            <mxPoint x="-320" y="390" as="targetPoint" />
          </mxGeometry>
        </mxCell>
        <mxCell id="Guq4Dx4WWDrTkWr6NEw7-49" value="кінець" style="ellipse;whiteSpace=wrap;html=1;" vertex="1" parent="1">
          <mxGeometry x="-380" y="520" width="120" height="40" as="geometry" />
        </mxCell>
        <mxCell id="Guq4Dx4WWDrTkWr6NEw7-50" value="+" style="text;html=1;whiteSpace=wrap;strokeColor=none;fillColor=none;align=center;verticalAlign=middle;rounded=0;" vertex="1" parent="1">
          <mxGeometry x="1140" y="364" width="60" height="30" as="geometry" />
        </mxCell>
        <mxCell id="Guq4Dx4WWDrTkWr6NEw7-51" value="+" style="text;html=1;whiteSpace=wrap;strokeColor=none;fillColor=none;align=center;verticalAlign=middle;rounded=0;" vertex="1" parent="1">
          <mxGeometry x="840" y="210" width="60" height="30" as="geometry" />
        </mxCell>
        <mxCell id="Guq4Dx4WWDrTkWr6NEw7-52" value="+" style="text;html=1;whiteSpace=wrap;strokeColor=none;fillColor=none;align=center;verticalAlign=middle;rounded=0;" vertex="1" parent="1">
          <mxGeometry x="413.75" y="640" width="60" height="30" as="geometry" />
        </mxCell>
        <mxCell id="Guq4Dx4WWDrTkWr6NEw7-53" value="+" style="text;html=1;whiteSpace=wrap;strokeColor=none;fillColor=none;align=center;verticalAlign=middle;rounded=0;" vertex="1" parent="1">
          <mxGeometry x="95" y="360" width="60" height="30" as="geometry" />
        </mxCell>
        <mxCell id="Guq4Dx4WWDrTkWr6NEw7-54" value="-" style="text;html=1;whiteSpace=wrap;strokeColor=none;fillColor=none;align=center;verticalAlign=middle;rounded=0;" vertex="1" parent="1">
          <mxGeometry x="-150" y="640" width="60" height="30" as="geometry" />
        </mxCell>
        <mxCell id="Guq4Dx4WWDrTkWr6NEw7-55" value="-" style="text;html=1;whiteSpace=wrap;strokeColor=none;fillColor=none;align=center;verticalAlign=middle;rounded=0;" vertex="1" parent="1">
          <mxGeometry x="-80" y="360" width="60" height="30" as="geometry" />
        </mxCell>
        <mxCell id="Guq4Dx4WWDrTkWr6NEw7-56" value="-" style="text;html=1;whiteSpace=wrap;strokeColor=none;fillColor=none;align=center;verticalAlign=middle;rounded=0;" vertex="1" parent="1">
          <mxGeometry x="600" y="364" width="60" height="30" as="geometry" />
        </mxCell>
        <mxCell id="Guq4Dx4WWDrTkWr6NEw7-57" value="-" style="text;html=1;whiteSpace=wrap;strokeColor=none;fillColor=none;align=center;verticalAlign=middle;rounded=0;" vertex="1" parent="1">
          <mxGeometry x="646.25" y="210" width="60" height="30" as="geometry" />
        </mxCell>
      </root>
    </mxGraphModel>
  </diagram>
</mxfile>
